# xmcd
#
# Track frame offsets: 
#        180
#        11632
#        23375
#        37611
#        52992
#        66590
#        80156
#        95860
#        107891
#        121263
#        136248
#        153632
#        160309
#        174446
#
# Disc length: 2369 seconds
#
# Revision: 0
# Processed by: cddbd v1.5.1PL0 Copyright (c) Steve Scherf et al.
# Submitted via: ExactAudioCopy v0.90b4
#
DISCID=b2093f0e
DTITLE=The Talbots - Saintsbury Line
DYEAR=1996
DGENRE=Blues
TTITLE0=Working Poor
TTITLE1=True Love
TTITLE2=Sittin' Alone In The Moonlight
TTITLE3=I Still Miss Someone
TTITLE4=Now That We're Over
TTITLE5=Saintsbury Line
TTITLE6=Don't Close Your Eyes
TTITLE7=Paul And Silas
TTITLE8=Bluegrass Stomp
TTITLE9=Walk On Boy
TTITLE10=The Lost Dog
TTITLE11=Cannonball Blues
TTITLE12=I See You
TTITLE13=Cannonball Blues (reprise)
EXTD=
EXTT0=
EXTT1=
EXTT2=
EXTT3=
EXTT4=
EXTT5=
EXTT6=
EXTT7=
EXTT8=
EXTT9=
EXTT10=
EXTT11=
EXTT12=
EXTT13=
PLAYORDER=
